Coordinates
version=1
nRows=34
nColumns=38
inDegrees=no

Units are S.I. units (second, meters, Newtons, ...)
If the header above contains a line with 'inDegrees', this indicates whether rotational values are in degrees (yes) or radians (no).

endheader
time	pelvis_tilt	pelvis_list	pelvis_rotation	pelvis_tx	pelvis_ty	pelvis_tz	hip_flexion_r	hip_adduction_r	hip_rotation_r	knee_angle_r	ankle_angle_r	subtalar_angle_r	mtp_angle_r	hip_flexion_l	hip_adduction_l	hip_rotation_l	knee_angle_l	ankle_angle_l	subtalar_angle_l	mtp_angle_l	lumbar_extension	lumbar_bending	lumbar_rotation	arm_flex_r	arm_add_r	arm_rot_r	elbow_flex_r	pro_sup_r	wrist_flex_r	wrist_dev_r	arm_flex_l	arm_add_l	arm_rot_l	elbow_flex_l	pro_sup_l	wrist_flex_l	wrist_dev_l
60	-0.537447	1.50956	2.30504	0.88936	-0.510338	1.05949	0.104806	-0.0471056	-0.0768227	0.457087	-0.236418	0	0	0.326536	-0.120291	-0.0911101	0.446183	-0.27336	0	0	-0.210548	-0.0724217	-0.147681	0.902637	-0.0897494	0.652412	0.865685	1.5708	0	0	0.586305	-0.437266	0.283338	1.24878	1.5708	0	0
60.01	-1.17981	1.5333	2.94753	0.890169	-0.514845	1.06308	0.063844	-0.0425014	-0.0855468	0.448589	-0.241835	0	0	0.281638	-0.12429	-0.0857276	0.458077	-0.252566	0	0	-0.459992	-0.0196906	0.199825	0.523393	-0.300311	-0.0533197	1.6782	1.5708	0	0	0.884503	-0.197167	0.544024	1.22235	1.5708	0	0
60.02	-1.28544	1.53278	3.05346	0.891586	-0.517513	1.06411	0.0608682	-0.0420672	-0.0864729	0.444896	-0.243716	0	0	0.272607	-0.123184	-0.0790001	0.46914	-0.244938	0	0	-0.461049	-0.0202334	0.203965	0.516353	-0.301447	-0.056129	1.68047	1.5708	0	0	0.884375	-0.195038	0.548786	1.21622	1.5708	0	0
60.03	-1.40785	1.53218	-3.10705	0.892844	-0.520205	1.06523	0.0564983	-0.0414699	-0.0877317	0.439944	-0.247506	0	0	0.262554	-0.122356	-0.0728983	0.48179	-0.232512	0	0	-0.462644	-0.0200275	0.207026	0.510642	-0.302306	-0.0572121	1.68116	1.5708	0	0	0.883225	-0.193544	0.552291	1.21074	1.5708	0	0
60.04	-1.5235	1.53116	-2.99167	0.894038	-0.522864	1.06632	0.0522353	-0.0408107	-0.0886139	0.435291	-0.251755	0	0	0.252062	-0.121873	-0.0682054	0.495061	-0.219343	0	0	-0.464078	-0.0195261	0.209555	0.505667	-0.302764	-0.0569643	1.68123	1.5708	0	0	0.880687	-0.192792	0.554329	1.20663	1.5708	0	0
60.05	-1.62127	1.52986	-2.89457	0.895152	-0.525455	1.06732	0.0485761	-0.0401752	-0.0888546	0.431136	-0.255197	0	0	0.241722	-0.121664	-0.0651364	0.508826	-0.207906	0	0	-0.464727	-0.0187797	0.211856	0.500785	-0.303043	-0.0560391	1.68091	1.5708	0	0	0.876962	-0.192474	0.555553	1.2033	1.5708	0	0
60.06	-1.70025	1.52845	-2.8167	0.896207	-0.527949	1.06821	0.0458273	-0.0397438	-0.0885515	0.426932	-0.259198	0	0	0.231791	-0.121763	-0.0643161	0.523389	-0.197698	0	0	-0.464431	-0.0179802	0.21425	0.495565	-0.302989	-0.0550676	1.68041	1.5708	0	0	0.872334	-0.192429	0.556499	1.2005	1.5708	0	0
60.07	-1.7703	1.52705	-2.74794	0.897176	-0.53039	1.06904	0.0433662	-0.0393084	-0.0882528	0.422884	-0.263474	0	0	0.222291	-0.122217	-0.065371	0.539468	-0.188858	0	0	-0.463766	-0.0171548	0.216634	0.490069	-0.302768	-0.0542221	1.67999	1.5708	0	0	0.867172	-0.192542	0.557219	1.19832	1.5708	0	0
60.08	-1.84069	1.52579	-2.67914	0.898099	-0.532776	1.06981	0.0407991	-0.0384815	-0.0876586	0.419187	-0.267187	0	0	0.213073	-0.123438	-0.06839	0.55756	-0.18061	0	0	-0.462922	-0.0160847	0.219284	0.484449	-0.302501	-0.053427	1.67957	1.5708	0	0	0.861815	-0.192663	0.55795	1.19638	1.5708	0	0
60.09	-1.91064	1.52453	-2.61066	0.898902	-0.535166	1.07051	0.0383472	-0.0375242	-0.0871332	0.415833	-0.270563	0	0	0.204253	-0.125035	-0.0725623	0.577374	-0.172261	0	0	-0.461969	-0.0146094	0.221798	0.478896	-0.302308	-0.0526189	1.67906	1.5708	0	0	0.856356	-0.192657	0.558502	1.19448	1.5708	0	0
60.1	-1.97734	1.52352	-2.5455	0.899616	-0.537518	1.0711	0.0362213	-0.0361816	-0.0866121	0.412763	-0.273673	0	0	0.19583	-0.127231	-0.0776112	0.598272	-0.163966	0	0	-0.460327	-0.0128661	0.224346	0.473055	-0.302085	-0.0519561	1.67819	1.5708	0	0	0.850727	-0.192678	0.559209	1.1925	1.5708	0	0
60.11	-2.03835	1.52312	-2.48643	0.900298	-0.539753	1.07154	0.0345064	-0.0341455	-0.0855442	0.409555	-0.276548	0	0	0.187672	-0.130151	-0.0833108	0.619243	-0.155521	0	0	-0.457764	-0.0107926	0.227091	0.466848	-0.301719	-0.0512333	1.6773	1.5708	0	0	0.844524	-0.19326	0.559951	1.19135	1.5708	0	0
60.12	-2.09992	1.52283	-2.42658	0.900862	-0.541964	1.07192	0.032777	-0.031937	-0.0847794	0.406173	-0.279517	0	0	0.179277	-0.133038	-0.0884831	0.639752	-0.147252	0	0	-0.455128	-0.00836799	0.229218	0.460872	-0.301061	-0.0503081	1.6764	1.5708	0	0	0.837837	-0.194054	0.560119	1.191	1.5708	0	0
60.13	-2.161	1.52251	-2.36691	0.901282	-0.544163	1.07223	0.0310271	-0.0297002	-0.0843172	0.402531	-0.282514	0	0	0.17049	-0.135544	-0.0923228	0.659177	-0.139557	0	0	-0.452233	-0.00567769	0.230741	0.454955	-0.300178	-0.0493738	1.67531	1.5708	0	0	0.830828	-0.195005	0.56001	1.19101	1.5708	0	0
60.14	-2.23324	1.52163	-2.29583	0.901573	-0.546385	1.07256	0.0282363	-0.0273668	-0.0847391	0.398309	-0.285319	0	0	0.160313	-0.137754	-0.0949609	0.676768	-0.132788	0	0	-0.449723	-0.00291107	0.232152	0.448942	-0.299461	-0.0489089	1.67397	1.5708	0	0	0.824437	-0.195941	0.560886	1.19058	1.5708	0	0
60.15	-2.30681	1.52068	-2.22312	0.901731	-0.548592	1.07283	0.0251767	-0.0249178	-0.0853322	0.39421	-0.287574	0	0	0.149516	-0.139716	-0.0958656	0.69271	-0.126562	0	0	-0.447266	0.000183512	0.232886	0.443073	-0.298605	-0.0482347	1.6726	1.5708	0	0	0.817647	-0.19739	0.56139	1.19113	1.5708	0	0
60.16	-2.37235	1.51995	-2.15829	0.901808	-0.550787	1.073	0.023009	-0.022615	-0.0854073	0.390488	-0.289942	0	0	0.138857	-0.141392	-0.0956851	0.707228	-0.120602	0	0	-0.444118	0.00337109	0.232883	0.437397	-0.297474	-0.046998	1.67084	1.5708	0	0	0.810212	-0.199331	0.56138	1.19245	1.5708	0	0
60.17	-2.43594	1.51943	-2.09562	0.901869	-0.552946	1.07308	0.0213266	-0.0199932	-0.084881	0.386871	-0.292365	0	0	0.1281	-0.14313	-0.0952352	0.720386	-0.114913	0	0	-0.440388	0.00649978	0.232794	0.431621	-0.295938	-0.0458673	1.66879	1.5708	0	0	0.802419	-0.201492	0.561373	1.19424	1.5708	0	0
60.18	-2.49689	1.51866	-2.03529	0.901821	-0.555149	1.07316	0.0196596	-0.0175415	-0.0847735	0.383394	-0.29502	0	0	0.117002	-0.144285	-0.0937816	0.731987	-0.109672	0	0	-0.436717	0.00954186	0.232146	0.425983	-0.294366	-0.0447921	1.66664	1.5708	0	0	0.794564	-0.203715	0.561382	1.1963	1.5708	0	0
60.19	-2.55345	1.51763	-1.97893	0.901639	-0.557404	1.07325	0.0181927	-0.0154641	-0.0851752	0.380588	-0.297474	0	0	0.105669	-0.144696	-0.0910866	0.742235	-0.105461	0	0	-0.4331	0.0125805	0.230759	0.420533	-0.292737	-0.0436006	1.66437	1.5708	0	0	0.786636	-0.206323	0.561496	1.19871	1.5708	0	0
60.2	-2.61019	1.51676	-1.92252	0.901425	-0.559661	1.07328	0.0171944	-0.0131214	-0.0848242	0.378154	-0.299343	0	0	0.0944203	-0.145286	-0.0886382	0.751466	-0.102348	0	0	-0.429356	0.0158181	0.229096	0.415338	-0.290905	-0.0420712	1.66203	1.5708	0	0	0.77822	-0.209528	0.561215	1.2021	1.5708	0	0
60.21	-2.66044	1.51613	-1.87282	0.901163	-0.561887	1.07329	0.0168817	-0.0109036	-0.0837818	0.376123	-0.300982	0	0	0.083303	-0.145565	-0.0864515	0.759379	-0.100315	0	0	-0.425387	0.0185888	0.226689	0.410484	-0.288634	-0.0399601	1.65954	1.5708	0	0	0.768716	-0.213288	0.559482	1.20714	1.5708	0	0
60.22	-2.70379	1.51582	-1.83014	0.90083	-0.56411	1.07323	0.0173052	-0.008918	-0.0820758	0.374363	-0.302608	0	0	0.0725556	-0.145361	-0.084449	0.76627	-0.0990882	0	0	-0.420826	0.0210743	0.223557	0.405989	-0.286168	-0.037126	1.65663	1.5708	0	0	0.758251	-0.21728	0.556527	1.21302	1.5708	0	0
60.23	-2.74948	1.51576	-1.78516	0.900416	-0.566382	1.07312	0.0181835	-0.00668681	-0.0799721	0.3728	-0.303864	0	0	0.062142	-0.145145	-0.0824098	0.772514	-0.0981742	0	0	-0.415936	0.0237642	0.219955	0.402012	-0.283843	-0.0336751	1.65337	1.5708	0	0	0.747368	-0.221349	0.552746	1.21918	1.5708	0	0
60.24	-2.79292	1.51613	-1.74231	0.899896	-0.568677	1.07296	0.0198242	-0.00459488	-0.0778515	0.371419	-0.304923	0	0	0.0522242	-0.144804	-0.0807456	0.777519	-0.0978167	0	0	-0.410712	0.0267714	0.215202	0.398972	-0.28121	-0.029035	1.64958	1.5708	0	0	0.735565	-0.226206	0.547351	1.22652	1.5708	0	0
60.25	-2.83559	1.51657	-1.70019	0.899284	-0.570991	1.0728	0.021787	-0.0026256	-0.0754949	0.370331	-0.305903	0	0	0.0422695	-0.144166	-0.0789833	0.78092	-0.0978727	0	0	-0.405623	0.0301039	0.209059	0.397207	-0.278071	-0.0228555	1.64506	1.5708	0	0	0.722556	-0.232046	0.540037	1.23554	1.5708	0	0
60.26	-2.87935	1.51705	-1.65697	0.898576	-0.57336	1.07263	0.0240324	-0.000783331	-0.0729775	0.36959	-0.307057	0	0	0.0324311	-0.143408	-0.0775746	0.783009	-0.0979876	0	0	-0.400641	0.0340098	0.200831	0.397441	-0.274259	-0.0141812	1.63919	1.5708	0	0	0.707372	-0.238846	0.529461	1.24655	1.5708	0	0
60.27	-2.92821	1.51772	-1.60897	0.897835	-0.575769	1.07243	0.0268487	0.0012606	-0.0693379	0.369238	-0.307884	0	0	0.0229665	-0.142927	-0.0771625	0.783975	-0.0978726	0	0	-0.396156	0.0385523	0.191632	0.399198	-0.270157	-0.00406671	1.63349	1.5708	0	0	0.690573	-0.246214	0.516296	1.25981	1.5708	0	0
60.28	-1.90149	1.56094	-2.63534	0.898149	-0.575642	1.06943	0.0822769	-0.00401463	-0.0562802	0.374472	-0.30696	0	0	0.0642092	-0.130027	-0.0633701	0.778243	-0.106382	0	0	-0.173951	-0.0321294	-0.101362	0.737913	-0.196711	0.670185	1.03921	1.5708	0	0	0.415235	-0.403461	0.253566	1.3112	1.5708	0	0
60.29	-1.89514	1.56404	-2.64326	0.897392	-0.578063	1.06915	0.0867141	-0.00194479	-0.0514142	0.374741	-0.308001	0	0	0.0558966	-0.129585	-0.0646372	0.777346	-0.106145	0	0	-0.173044	-0.0256894	-0.117698	0.747131	-0.186577	0.68928	1.03312	1.5708	0	0	0.385953	-0.408512	0.222075	1.3362	1.5708	0	0
60.3	-3.10396	1.52436	-1.4377	0.895442	-0.582846	1.07136	0.0427896	0.00766742	-0.054779	0.3703	-0.31083	0	0	0.000365697	-0.141752	-0.0814339	0.781011	-0.0986177	0	0	-0.386586	0.0599393	0.141975	0.427423	-0.24922	0.0558233	1.60965	1.5708	0	0	0.608451	-0.279943	0.429536	1.33553	1.5708	0	0
60.31	-2.61093	1.56816	-1.93022	0.895726	-0.583071	1.06871	0.0936722	0.00166827	-0.0437695	0.376655	-0.30981	0	0	0.0370707	-0.128745	-0.0702137	0.771494	-0.113417	0	0	-0.16607	-0.0183812	-0.13347	0.755033	-0.1817	0.720332	1.02414	1.5708	0	0	0.351407	-0.410103	0.192235	1.35902	1.5708	0	0
60.32	2.93984	1.56671	-1.19901	0.894839	-0.585726	1.0686	0.0955095	0.00329704	-0.0405339	0.378032	-0.310276	0	0	0.0260872	-0.128528	-0.0750139	0.766051	-0.123025	0	0	-0.159922	-0.0193274	-0.12538	0.746115	-0.192714	0.719074	1.0285	1.5708	0	0	0.355924	-0.405858	0.207245	1.35052	1.5708	0	0
60.33	2.67213	1.56435	-0.932434	0.893901	-0.58847	1.06852	0.0976742	0.00464503	-0.0373908	0.379505	-0.311332	0	0	0.0150441	-0.128302	-0.0806886	0.758411	-0.136423	0	0	-0.154846	-0.0207489	-0.115853	0.735067	-0.205015	0.713285	1.03632	1.5708	0	0	0.362553	-0.401555	0.224748	1.3422	1.5708	0	0
